<svg width="1024" height="1024" xmlns="http://www.w3.org/2000/svg" style="vector-effect: non-scaling-stroke;" stroke="null" t="1723086700433" class="icon" version="1.1" p-id="16454">

 <g stroke="null">
  <title style="vector-effect: non-scaling-stroke;" stroke="null">background</title>
  <rect stroke="null" fill="#ffffff" id="canvas_background" height="1026" width="1026" y="-1" x="-1"/>
 </g>
 <g stroke="null">
  <title style="vector-effect: non-scaling-stroke;" stroke="null">Layer 1</title>
  <text stroke="null" x="742.955619" y="61.421277" id="svg_5" fill="#000000" stroke-width="0" font-size="24" font-family="'Archivo'" text-anchor="start" xml:space="preserve" transform="matrix(14.5457,0,0,13.34334809822097,-10055.800000000003,-408.8735101171336) ">z</text>
  <path style="vector-effect: non-scaling-stroke;" stroke="null" d="m256,355.84l46.08,0l5.12,53.76l2.56,0c33.28,-35.84 71.68,-64 115.2,-64c58.88,0 87.04,28.16 102.4,71.68c40.96,-43.52 79.36,-71.68 122.88,-71.68c76.8,0 112.64,51.2 112.64,145.92l0,235.52l-56.32,0l0,-227.84c0,-71.68 -23.04,-102.4 -71.68,-102.4c-30.72,0 -61.44,20.48 -97.28,61.44l0,271.36l-56.32,0l0,-227.84c0,-71.68 -23.04,-102.4 -71.68,-102.4c-28.16,0 -61.44,20.48 -97.28,61.44l0,271.36l-56.32,0l0,-376.32z" p-id="16456" id="svg_2"/>
 </g>
</svg>