<?xml version="1.0" standalone="no"?><!DOCTYPE svg PUBLIC "-//W3C//DTD SVG 1.1//EN" "http://www.w3.org/Graphics/SVG/1.1/DTD/svg11.dtd"><svg t="1723179045043" class="icon" viewBox="0 0 1583 1024" version="1.1" xmlns="http://www.w3.org/2000/svg" p-id="5260" xmlns:xlink="http://www.w3.org/1999/xlink" width="309.1796875" height="200"><path d="M827.456351 266.358382c0-30.961316-20.489106-50.995109-51.14688-50.995109-30.657774 0-61.467319 20.033793-61.467319 50.995109 0 30.657774 30.809545 51.14688 61.467319 51.14688s51.14688-20.489106 51.14688-51.14688zM490.069068 215.515044c-30.657774 0-61.61909 20.033793-61.61909 50.995109 0 30.657774 30.961316 51.14688 61.61909 51.14688 30.506003 0 50.995109-20.489106 50.995109-51.14688 0-31.113087-20.489106-50.995109-50.995109-50.995109z" p-id="5261" fill="#060606"></path><path d="M1387.795465 644.875648c0-161.788054-150.101675-299.596265-334.200089-313.862753 0.303542-1.973025 0.303542-4.097821-0.151771-6.222618C1016.714984 152.530013 831.554172 22.765674 622.868831 22.765674c-235.700608 0-427.539351 164.368164-427.539351 366.375574 0 108.364606 55.396473 206.105232 160.270342 283.053209l-36.576849 109.882318c-2.428339 7.133244-0.151771 15.025345 5.463762 20.033793 3.490737 3.035423 7.8921 4.553135 12.293464 4.553134 2.883652 0 5.767304-0.607085 8.347413-1.973025l137.201127-68.752334 16.846598 3.490737c42.192382 8.650956 78.769231 16.239514 123.693494 16.239513 13.204091 0 49.629169-4.856677 52.664591-8.650956 49.477397 123.845265 185.919668 213.238476 346.341782 213.238477 41.129984 0 82.715281-9.865125 120.050985-19.274937l105.784497 57.824811c2.731881 1.517712 5.919075 2.276567 8.954499 2.276567 4.249592 0 8.347414-1.36594 11.686379-4.097821 5.919075-4.704906 8.347414-12.597006 6.070846-19.882022L1247.558915 887.254187c90.607381-71.484215 140.23655-157.234919 140.23655-242.378539z m-723.493108 61.61909c-1.821254-0.455313-3.794279-0.758856-5.919076-0.607084-11.686379 1.062398-23.524529 1.517712-35.362679 1.517711-39.612272 0-73.305469-6.829702-112.007115-14.873573l-22.613902-4.553135c-3.94605-0.758856-8.043871-0.303542-11.534608 1.517712L377.60664 739.125537l25.801097-77.40329c2.58011-7.588558-0.303542-15.7842-6.829702-20.489106-99.713651-69.51119-150.101675-154.047725-150.101675-251.484808 0-174.992145 168.921298-317.505262 376.544242-317.505262 183.491329 0 346.038239 111.703572 379.579665 260.135764-192.445828 2.58011-348.163035 137.808211-348.163036 303.997629 0 24.131614 3.642508 47.504372 9.865126 70.118274z m541.064176 148.583964c-5.919075 4.401364-8.347414 12.141693-6.222617 19.274937l16.694827 55.700014-68.752334-37.639247c-2.58011-1.517712-5.615533-2.124796-8.499185-2.124796-1.36594 0-2.883652 0.151771-4.401364 0.607085-36.880391 9.258041-75.126723 18.971395-112.158885 18.971395-172.715577 0-313.103898-118.685045-313.103898-264.385357S849.311398 380.945605 1022.026975 380.945605c169.376612 0 312.496813 121.113384 312.496813 264.385357-0.151771 72.698384-45.986661 147.218023-129.157255 209.74774z" p-id="5262" fill="#060606"></path><path d="M909.261005 511.924114c-20.489106 0-40.978213 20.640877-40.978213 40.978213 0 20.640877 20.489106 40.826441 40.978213 40.826441 30.809545 0 50.995109-20.337335 50.995109-40.826441 0-20.489106-20.337335-40.978213-50.995109-40.978213zM1134.034089 511.924114c-20.185564 0-40.67467 20.640877-40.67467 40.978213 0 20.640877 20.489106 40.826441 40.67467 40.826441 30.657774 0 51.298651-20.337335 51.298651-40.826441 0-20.489106-20.640877-40.978213-51.298651-40.978213z" p-id="5263" fill="#060606"></path></svg>