<?xml version="1.0" standalone="no"?><!DOCTYPE svg PUBLIC "-//W3C//DTD SVG 1.1//EN" "http://www.w3.org/Graphics/SVG/1.1/DTD/svg11.dtd"><svg t="1723086577036" class="icon" viewBox="0 0 1024 1024" version="1.1" xmlns="http://www.w3.org/2000/svg" p-id="9762" xmlns:xlink="http://www.w3.org/1999/xlink" width="200" height="200"><path d="M896 0H234.666667A149.333333 149.333333 0 0 0 85.333333 149.333333v725.333334A149.333333 149.333333 0 0 0 234.666667 1024H896a42.666667 42.666667 0 0 0 42.666667-42.666667V42.666667a42.666667 42.666667 0 0 0-42.666667-42.666667zM234.666667 85.333333H853.333333v640H234.666667a147.2 147.2 0 0 0-64 14.933334V149.333333A64 64 0 0 1 234.666667 85.333333zM853.333333 938.666667H234.666667a64 64 0 0 1 0-128H853.333333z" p-id="9763" fill="#2c2c2c"></path><path d="M384 256h256a42.666667 42.666667 0 0 0 0-85.333333H384a42.666667 42.666667 0 0 0 0 85.333333z" p-id="9764" fill="#2c2c2c"></path></svg>